<svg width="20" height="21" viewBox="0 0 20 21" fill="none" xmlns="http://www.w3.org/2000/svg">
<g id="Frame">
<path id="Vector" d="M16.25 12.2749V10.0874C16.25 9.34148 15.9537 8.62611 15.4262 8.09866C14.8988 7.57122 14.1834 7.2749 13.4375 7.2749H12.1875C11.9389 7.2749 11.7004 7.17613 11.5246 7.00031C11.3488 6.8245 11.25 6.58604 11.25 6.3374V5.0874C11.25 4.34148 10.9537 3.62611 10.4262 3.09866C9.89879 2.57122 9.18342 2.2749 8.4375 2.2749H6.875M7.5 12.2749L10 14.7749M10 14.7749L12.5 12.2749M10 14.7749V9.7749M8.75 2.2749H4.6875C4.17 2.2749 3.75 2.6949 3.75 3.2124V17.5874C3.75 18.1049 4.17 18.5249 4.6875 18.5249H15.3125C15.83 18.5249 16.25 18.1049 16.25 17.5874V9.7749C16.25 7.78578 15.4598 5.87812 14.0533 4.4716C12.6468 3.06508 10.7391 2.2749 8.75 2.2749Z" stroke="#2D2F31" stroke-width="1.25" stroke-linecap="round" stroke-linejoin="round"/>
</g>
</svg>
