<svg width="24" height="24" viewBox="0 0 24 24" fill="none" xmlns="http://www.w3.org/2000/svg">
<path d="M23.2529 8.98051C23.5279 8.98051 23.7529 8.75551 23.7529 8.48051C23.7529 8.20551 23.5279 7.98051 23.2529 7.98051H22.9579C22.9529 7.97551 22.9479 7.96551 22.9379 7.96051L16.0629 2.33551C15.8129 2.13051 15.4979 2.02051 15.1779 2.02051H4.15793C3.38793 2.02051 2.76293 2.64551 2.76293 3.41551V6.23051H1.90293C0.99293 6.23051 0.25293 6.97051 0.25293 7.88051V10.6055C0.253095 10.6753 0.26786 10.7442 0.296277 10.808C0.324694 10.8717 0.366133 10.9288 0.41793 10.9755L1.55293 12.0155V14.9805C1.55293 15.2405 1.66793 15.4855 1.86793 15.6555L9.20293 21.7755C9.35793 21.9055 9.55793 21.9805 9.76293 21.9805H21.5479C21.8229 21.9805 22.0479 21.7555 22.0479 21.4805C22.0479 21.2055 21.8229 20.9805 21.5479 20.9805H21.0629V17.5005H21.5479C21.8229 17.5005 22.0479 17.2755 22.0479 17.0005C22.0479 16.7255 21.8229 16.5005 21.5479 16.5005H19.6729V13.2405H23.2529C23.5279 13.2405 23.7529 13.0155 23.7529 12.7405C23.7529 12.4655 23.5279 12.2405 23.2529 12.2405H22.0479V8.98051H23.2529ZM3.76293 3.41551C3.76293 3.19551 3.94293 3.02051 4.15793 3.02051H15.1779C15.2679 3.02051 15.3579 3.05051 15.4279 3.11051L21.3879 7.98051H11.1529C10.3829 7.98051 9.75793 8.60551 9.75793 9.37551V11.7155L3.76293 6.50551V3.41551ZM1.25293 7.88551C1.25293 7.52551 1.54293 7.23551 1.90293 7.23551H3.07293L8.82793 12.2405H8.62793C7.71793 12.2405 6.97793 12.9805 6.97793 13.8905V15.6155L1.25293 10.3905V7.88551ZM2.55293 12.9305L7.40793 17.3655C7.49793 17.4505 7.61793 17.5005 7.74293 17.5005H8.29293V19.7205L2.55293 14.9255V12.9305ZM20.0629 20.9805H9.80793L9.29293 20.5505V17.5005H20.0629V20.9805ZM18.6729 16.5005H7.97293V13.8955C7.97293 13.5355 8.26293 13.2455 8.62293 13.2455H18.6679V16.5005H18.6729ZM21.0479 12.2405H10.7529V9.38051C10.7529 9.16051 10.9329 8.98551 11.1479 8.98551H21.0479V12.2405Z" fill="#6F6F6F"/>
</svg>
