<svg width="24" height="24" viewBox="0 0 24 24" fill="none" xmlns="http://www.w3.org/2000/svg">
  <path d="M20 3H4C3.44772 3 3 3.44772 3 4V20C3 20.5523 3.44772 21 4 21H20C20.5523 21 21 20.5523 21 20V4C21 3.44772 20.5523 3 20 3ZM4 20V4H20V20H4Z" fill="#6F6F6F"/>
  <path d="M9 7H7V9H9V7ZM9 11H7V13H9V11ZM9 15H7V17H9V15ZM17 7H11V9H17V7ZM17 11H11V13H17V11ZM17 15H11V17H17V15Z" fill="#6F6F6F"/>
  <path d="M18.7071 7.70711L17.2929 6.29289L14 9.58579L12.7071 8.29289L11.2929 9.70711L14 12.4142L18.7071 7.70711Z" fill="#6F6F6F"/>
</svg>