<svg width="28" height="28" viewBox="0 0 28 28" fill="none" xmlns="http://www.w3.org/2000/svg">
<path fill-rule="evenodd" clip-rule="evenodd" d="M13.1765 3.84158C13.3952 3.62287 13.6919 3.5 14.0013 3.5C14.3106 3.5 14.6073 3.62287 14.8261 3.84158L21.8261 10.8416L24.1595 13.1749C24.372 13.395 24.4896 13.6897 24.4869 13.9956C24.4843 14.3014 24.3616 14.5941 24.1452 14.8104C23.9289 15.0267 23.6363 15.1494 23.3304 15.152C23.0245 15.1547 22.7298 15.0371 22.5098 14.8246L22.168 14.4827V22.1664C22.168 22.7853 21.9221 23.3787 21.4845 23.8163C21.047 24.2539 20.4535 24.4998 19.8346 24.4998H16.3346C16.0252 24.4998 15.7285 24.3768 15.5097 24.158C15.2909 23.9392 15.168 23.6425 15.168 23.3331V19.8331H12.8346V23.3331C12.8346 23.6425 12.7117 23.9392 12.4929 24.158C12.2741 24.3768 11.9774 24.4998 11.668 24.4998H8.16796C7.54912 24.4998 6.95562 24.2539 6.51804 23.8163C6.08045 23.3787 5.83462 22.7853 5.83462 22.1664V14.4827L5.49279 14.8246C5.27275 15.0371 4.97805 15.1547 4.67215 15.152C4.36626 15.1494 4.07364 15.0267 3.85733 14.8104C3.64102 14.5941 3.51833 14.3014 3.51567 13.9956C3.51301 13.6897 3.6306 13.395 3.84312 13.1749L6.17646 10.8416L13.1765 3.84158Z" fill="#0E99AD"/>
<rect x="18.3984" y="5" width="3" height="9" rx="1" fill="#0E99AD"/>
</svg>
