<svg width="24" height="24" viewBox="0 0 24 24" fill="none" xmlns="http://www.w3.org/2000/svg">
  <path d="M17 2H7C6.44772 2 6 2.44772 6 3V7C6 9.76142 8.23858 12 11 12C8.23858 12 6 14.2386 6 17V21C6 21.5523 6.44772 22 7 22H17C17.5523 22 18 21.5523 18 21V17C18 14.2386 15.7614 12 13 12C15.7614 12 18 9.76142 18 7V3C18 2.44772 17.5523 2 17 2ZM16 4V7C16 9.20914 14.2091 11 12 11C9.79086 11 8 9.20914 8 7V4H16ZM16 20H8V17C8 14.7909 9.79086 13 12 13C14.2091 13 16 14.7909 16 17V20Z" fill="#6F6F6F"/>
  <path d="M12 14C10.8954 14 10 14.8954 10 16C10 17.1046 10.8954 18 12 18C13.1046 18 14 17.1046 14 16C14 14.8954 13.1046 14 12 14Z" fill="#6F6F6F"/>
  <path d="M11 7H13V9H11V7Z" fill="#6F6F6F"/>
</svg>